Run_30001
nRows=4
nColumns=164

# SIMM Motion File Header:
name Run_30001
datacolumns 164
datarows 4
otherdata 1
range 4.00833300 4.03333300
endheader
time	pelvis_tilt	pelvis_list	pelvis_rotation	pelvis_tx	pelvis_ty	pelvis_tz	hip_flexion_r	hip_adduction_r	hip_rotation_r	knee_angle_r	ankle_angle_r	hip_flexion_l	hip_adduction_l	hip_rotation_l	knee_angle_l	ankle_angle_l	lumbar_extension	lumbar_bending	lumbar_rotation	arm_flex_r	arm_add_r	arm_rot_r	elbow_flex_r	pro_sup_r	arm_flex_l	arm_add_l	arm_rot_l	elbow_flex_l	pro_sup_l	subtalar_angle_r	mtp_angle_r	subtalar_angle_l	mtp_angle_l	wrist_flex_r	wrist_dev_r	wrist_flex_l	wrist_dev_l	LASI_tx	LASI_ty	LASI_tz	RASI_tx	RASI_ty	RASI_tz	LPSI_tx	LPSI_ty	LPSI_tz	RPSI_tx	RPSI_ty	RPSI_tz	RTH1_tx	RTH1_ty	RTH1_tz	RTH2_tx	RTH2_ty	RTH2_tz	RTH3_tx	RTH3_ty	RTH3_tz	LTH1_tx	LTH1_ty	LTH1_tz	LTH2_tx	LTH2_ty	LTH2_tz	LTH3_tx	LTH3_ty	LTH3_tz	RTB1_tx	RTB1_ty	RTB1_tz	RTB2_tx	RTB2_ty	RTB2_tz	RTB3_tx	RTB3_ty	RTB3_tz	LTB1_tx	LTB1_ty	LTB1_tz	LTB2_tx	LTB2_ty	LTB2_tz	LTB3_tx	LTB3_ty	LTB3_tz	RCAL_tx	RCAL_ty	RCAL_tz	RTOE_tx	RTOE_ty	RTOE_tz	RMT5_tx	RMT5_ty	RMT5_tz	LCAL_tx	LCAL_ty	LCAL_tz	LTOE_tx	LTOE_ty	LTOE_tz	LMT5_tx	LMT5_ty	LMT5_tz	LACR_tx	LACR_ty	LACR_tz	RACR_tx	RACR_ty	RACR_tz	CLAV_tx	CLAV_ty	CLAV_tz	C7_tx	C7_ty	C7_tz	RUA1_tx	RUA1_ty	RUA1_tz	RUA2_tx	RUA2_ty	RUA2_tz	RUA3_tx	RUA3_ty	RUA3_tz	RLEL_tx	RLEL_ty	RLEL_tz	RMEL_tx	RMEL_ty	RMEL_tz	LUA1_tx	LUA1_ty	LUA1_tz	LUA2_tx	LUA2_ty	LUA2_tz	LUA3_tx	LUA3_ty	LUA3_tz	LLEL_tx	LLEL_ty	LLEL_tz	LMEL_tx	LMEL_ty	LMEL_tz	RFAsuperior_tx	RFAsuperior_ty	RFAsuperior_tz	RFAradius_tx	RFAradius_ty	RFAradius_tz	RFAulna_tx	RFAulna_ty	RFAulna_tz	LFAsuperior_tx	LFAsuperior_ty	LFAsuperior_tz	LFAradius_tx	LFAradius_ty	LFAradius_tz	LFAulna_tx	LFAulna_ty	LFAulna_tz
      4.00833300	     -0.36815264	      4.82677211	      4.42577164	      0.77653131	      0.95541280	     -0.37712021	     24.12077195	     -8.06147519	     -2.49739054	   -110.62152375	     -4.90811094	     10.17688974	     10.33665812	      0.68965214	    -35.26494639	     20.43612790	    -15.72983157	     -7.02904847	     -5.53864946	    -26.17997519	    -23.17183657	      8.95755128	    111.04821829	     79.10066182	     -4.14707215	    -38.04917330	     -4.47864326	    124.54285302	     97.55863564	      0.00000000	      0.00000000	      0.00000000	      0.00000000	      0.00000000	      0.00000000	      0.00000000	      0.00000000	      0.78644991	      0.98192108	     -0.50252284	      0.78650772	      0.97474500	     -0.24891517	      0.61405503	      1.00281151	     -0.40613331	      0.61584839	      1.00100551	     -0.31957094	      0.78107569	      0.79569756	     -0.20625693	      0.87907809	      0.70025120	     -0.22495995	      0.84133980	      0.56896262	     -0.21019138	      0.74744939	      0.83928328	     -0.54275983	      0.80537757	      0.72698108	     -0.52933233	      0.74876699	      0.58633226	     -0.51328968	      0.76176833	      0.42869496	     -0.27131157	      0.69120088	      0.46145492	     -0.22120126	      0.58344157	      0.43350588	     -0.29146243	      0.77087417	      0.34824359	     -0.42602940	      0.69124241	      0.26079638	     -0.46746203	      0.67302264	      0.18838054	     -0.38819909	      0.45045502	      0.53531505	     -0.30273265	      0.43016357	      0.31625639	     -0.29505360	      0.41095578	      0.35407632	     -0.21020015	      0.51296343	      0.10738752	     -0.38366743	      0.72806678	      0.07188386	     -0.37953492	      0.69827499	      0.05911799	     -0.46648349	      0.78106114	      1.40912384	     -0.57937613	      0.77929420	      1.43260181	     -0.19950905	      0.87954430	      1.38396759	     -0.35873064	      0.74659795	      1.47907101	     -0.39647679	      0.73154612	      1.33713544	     -0.13329593	      0.72950423	      1.26621833	     -0.13176931	      0.63157505	      1.28361896	     -0.09772173	      0.64246975	      1.19537930	     -0.05424244	      0.58171306	      1.18387318	     -0.11923828	      0.74912254	      1.34037131	     -0.63681447	      0.68951481	      1.27068385	     -0.62524016	      0.73435523	      1.26074035	     -0.68783551	      0.71855795	      1.16631161	     -0.74561452	      0.68377131	      1.10589039	     -0.68920991	      0.71103134	      1.15200104	     -0.08590494	      0.82396274	      1.08630210	     -0.19327224	      0.78200005	      1.03542527	     -0.17048299	      0.78919635	      1.17538363	     -0.72571871	      0.91977648	      1.17679341	     -0.60851295	      0.93459284	      1.12531697	     -0.65059757
      4.01666700	     -0.55730237	      4.44450402	      4.78224433	      0.77588315	      0.95786327	     -0.37832898	     26.56657081	     -7.85707311	     -2.44942250	   -109.97422494	     -4.60453167	      7.81993731	      9.88692918	      1.38175861	    -33.57417252	     20.27424454	    -15.43476403	     -6.37573058	     -6.80973038	    -27.31114396	    -23.07479566	      7.91442545	    111.31383474	     77.38677103	     -2.92136380	    -36.76817155	     -4.55153752	    124.62114512	     98.67616713	      0.00000000	      0.00000000	      0.00000000	      0.00000000	      0.00000000	      0.00000000	      0.00000000	      0.00000000	      0.78542640	      0.98300064	     -0.50415828	      0.78638845	      0.97753281	     -0.24999355	      0.61359265	      1.00532220	     -0.40747493	      0.61577585	      1.00340382	     -0.32150699	      0.78459290	      0.80099734	     -0.20619911	      0.88708549	      0.70963544	     -0.22573021	      0.85421743	      0.57768075	     -0.21043508	      0.74062277	      0.84028687	     -0.54293690	      0.79620433	      0.72665228	     -0.52903040	      0.73511901	      0.58741021	     -0.51305869	      0.77986046	      0.43183976	     -0.27182037	      0.70877382	      0.46219273	     -0.22094122	      0.60198671	      0.42976961	     -0.29097106	      0.74983818	      0.34856183	     -0.42581604	      0.66887494	      0.26249400	     -0.46747484	      0.64970708	      0.18962089	     -0.38854319	      0.46277517	      0.52423710	     -0.29894215	      0.45602768	      0.30437633	     -0.29488246	      0.43436238	      0.33951432	     -0.20919479	      0.48841409	      0.10942916	     -0.38402195	      0.70314410	      0.07136692	     -0.38009380	      0.67304207	      0.05907817	     -0.46669400	      0.78432618	      1.41124389	     -0.57935636	      0.77471013	      1.43648641	     -0.19961861	      0.87857843	      1.38738709	     -0.35690406	      0.74605774	      1.48200463	     -0.39730594	      0.72434986	      1.34220654	     -0.13371556	      0.72197563	      1.27139143	     -0.13093049	      0.62258744	      1.28915757	     -0.10084333	      0.63099102	      1.20081786	     -0.05610507	      0.57347194	      1.18986477	     -0.12343851	      0.75433200	      1.34090532	     -0.63594542	      0.69507056	      1.27036426	     -0.62399557	      0.74018876	      1.26011554	     -0.68523018	      0.72713487	      1.16411238	     -0.74161915	      0.69426814	      1.10404105	     -0.68386283	      0.70010295	      1.15607224	     -0.08447707	      0.81759685	      1.09049593	     -0.18729809	      0.77382150	      1.03999844	     -0.16758123	      0.79763461	      1.17525530	     -0.72151798	      0.92669220	      1.18212245	     -0.60196708	      0.94395285	      1.13083556	     -0.64353270
      4.02500000	     -0.76926106	      3.87967556	      5.12685231	      0.77563944	      0.96110646	     -0.37903673	     28.82892945	     -7.37357727	     -2.55263277	   -108.74198261	     -4.29213014	      5.35018534	      9.17261583	      2.17930815	    -31.57010257	     19.66187525	    -15.05105469	     -5.54995747	     -8.03733756	    -28.46924488	    -23.04276174	      6.89643809	    111.98288796	     75.65458901	     -2.12626156	    -35.61872808	     -4.56100761	    124.99059441	     99.32698441	      0.00000000	      0.00000000	      0.00000000	      0.00000000	      0.00000000	      0.00000000	      0.00000000	      0.00000000	      0.78440964	      0.98425034	     -0.50494274	      0.78656291	      0.98142736	     -0.25052568	      0.61342625	      1.00859352	     -0.40831128	      0.61607625	      1.00696310	     -0.32291624	      0.78862910	      0.80738341	     -0.20620739	      0.89449250	      0.71950834	     -0.22665253	      0.86632000	      0.58743822	     -0.21082790	      0.73438991	      0.84187581	     -0.54277166	      0.78774953	      0.72714852	     -0.52795774	      0.72119930	      0.58922389	     -0.51232759	      0.79762968	      0.43582487	     -0.27248302	      0.72557245	      0.46275760	     -0.22095549	      0.62052937	      0.42520763	     -0.29103753	      0.72838658	      0.34977569	     -0.42532648	      0.64618624	      0.26510870	     -0.46738189	      0.62620967	      0.19163242	     -0.38880845	      0.47488009	      0.51102074	     -0.29603749	      0.48309700	      0.29128613	     -0.29499172	      0.45884660	      0.32388634	     -0.20826790	      0.46414660	      0.11246590	     -0.38470183	      0.67829218	      0.07100259	     -0.38065711	      0.64773015	      0.05907047	     -0.46669812	      0.78777300	      1.41459547	     -0.57899669	      0.77011439	      1.44125267	     -0.19970594	      0.87756959	      1.39185074	     -0.35469903	      0.74571391	      1.48575627	     -0.39779120	      0.71741113	      1.34828334	     -0.13408336	      0.71456908	      1.27762711	     -0.13018257	      0.61399323	      1.29574394	     -0.10359831	      0.62011378	      1.20754219	     -0.05797047	      0.56568203	      1.19694818	     -0.12748805	      0.75948269	      1.34292072	     -0.63480825	      0.70011886	      1.27215115	     -0.62280984	      0.74609419	      1.26113408	     -0.68245803	      0.73508130	      1.16393924	     -0.73724781	      0.70304199	      1.10436875	     -0.67832219	      0.68987713	      1.16236894	     -0.08353635	      0.81151848	      1.09721292	     -0.18147791	      0.76652197	      1.04679820	     -0.16497432	      0.80526382	      1.17704803	     -0.71675865	      0.93227503	      1.18877536	     -0.59481928	      0.95165210	      1.13741829	     -0.63546362
      4.03333300	     -0.93921561	      3.15587463	      5.43003890	      0.77582580	      0.96511991	     -0.37926724	     30.81690757	     -6.64527342	     -2.79102784	   -106.94813145	     -3.96613723	      2.72224699	      8.21015757	      3.04311490	    -29.26148468	     18.57176559	    -14.64757352	     -4.58031009	     -9.17024711	    -29.64276485	    -23.07255752	      5.90056401	    112.92226017	     74.16542054	     -1.66859848	    -34.64384954	     -4.38341789	    125.57194656	     99.49495121	      0.00000000	      0.00000000	      0.00000000	      0.00000000	      0.00000000	      0.00000000	      0.00000000	      0.00000000	      0.78357785	      0.98578860	     -0.50542680	      0.78685342	      0.98645546	     -0.25036486	      0.61362521	      1.01243447	     -0.40870208	      0.61654503	      1.01157846	     -0.32370710	      0.79306686	      0.81468186	     -0.20625286	      0.90124940	      0.72952991	     -0.22774948	      0.87757700	      0.59766964	     -0.21133392	      0.72949143	      0.84395813	     -0.54223212	      0.77988147	      0.72811174	     -0.52626018	      0.70685850	      0.59200692	     -0.51098919	      0.81503123	      0.44045223	     -0.27327469	      0.74172177	      0.46301782	     -0.22113549	      0.63917825	      0.41958658	     -0.29125027	      0.70674075	      0.35185670	     -0.42460198	      0.62343246	      0.26862660	     -0.46717124	      0.60290365	      0.19445956	     -0.38914147	      0.48715321	      0.49582265	     -0.29408977	      0.51138903	      0.27740886	     -0.29558904	      0.48463594	      0.30754346	     -0.20744947	      0.44045656	      0.11680406	     -0.38585395	      0.65364260	      0.07096280	     -0.38119994	      0.62238729	      0.05909055	     -0.46654068	      0.79121069	      1.41911630	     -0.57817503	      0.76554546	      1.44677098	     -0.19979777	      0.87646696	      1.39724655	     -0.35215889	      0.74533866	      1.49014680	     -0.39789515	      0.71077936	      1.35522818	     -0.13443305	      0.70749794	      1.28472241	     -0.12957239	      0.60598297	      1.30325355	     -0.10614775	      0.61017589	      1.21550327	     -0.05988914	      0.55830782	      1.20488132	     -0.13130633	      0.76444897	      1.34631036	     -0.63345642	      0.70479595	      1.27566755	     -0.62164834	      0.75211284	      1.26368642	     -0.67970602	      0.74242971	      1.16559786	     -0.73290982	      0.71002038	      1.10674396	     -0.67309720	      0.68070195	      1.17070713	     -0.08310793	      0.80569286	      1.10566274	     -0.17606455	      0.76004362	      1.05519661	     -0.16246607	      0.81212008	      1.18041182	     -0.71171575	      0.93653609	      1.19635809	     -0.58729163	      0.95762313	      1.14468535	     -0.62660066
